Simulation
nRows=28
nColumns=15
endheader
time  TH_x TH_y TH_z SC_y  SC_z  SC_x  AC_y  AC_z  AC_x  GH_y  GH_z  GH_yy  EL_x  PS_y
8.6175  0.000000  0.000000  0.000000  -35.32035992787012  2.5008703524627975  -8.031922377465952  41.36195506344746  13.935076799874508  4.823835120848525  113.93478783769505  4.885494786655969  -98.76755974715324  20.579420103512092  120.000000
8.67495  0.000000  0.000000  0.000000  -34.93938807326544  2.3668047135234866  -8.388097349728637  40.82742453242602  13.840068507612918  4.465031757308563  104.05315523827142  5.38486586487278  -88.88395541375048  20.50887934581954  120.000000
8.7324  0.000000  0.000000  0.000000  -34.53772357540596  2.1522842422317288  -8.836967901982353  40.361221125686484  13.80471612635785  4.151848872003676  94.75291375391639  6.4472179758155  -79.4309366267036  20.61074090053025  120.000000
8.78985  0.000000  0.000000  0.000000  -34.15880219535742  1.878076101890987  -9.33859052626298  39.996039604992035  13.82818398325984  3.913603599099247  87.75681761714912  8.153268785468187  -72.18820644766463  20.868553007320564  120.000000
8.8473  0.000000  0.000000  0.000000  -33.84643760319701  1.5955007781390997  -9.849764081854582  39.74861549185314  13.914797875755973  3.7839919058538913  83.32343262382012  10.505231676723831  -67.51442183219483  21.223851523395663  120.000000
8.90475  0.000000  0.000000  0.000000  -33.6293969825922  1.374886084343448  -10.324698753636126  39.616956518055446  14.072013545784648  3.8025260338942073  80.90361396480408  13.43697428317016  -64.9745053953861  21.602531508897513  120.000000
8.9622  0.000000  0.000000  0.000000  -33.5132977334098  1.2912943524948275  -10.717629237158743  39.59459298023413  14.312064995673172  4.003156349027578  79.83579218312241  16.82378984136889  -64.00957412604114  21.938596368465475  120.000000
9.01965  0.000000  0.000000  0.000000  -33.49352049238048  1.414615538574814  -10.976038480724066  39.677191279324596  14.643901517397602  4.414043891169435  79.60687464615492  20.511839166000986  -64.18022891755395  22.191607754108272  120.000000
9.0771  0.000000  0.000000  0.000000  -33.563264945197766  1.799554076673134  -11.034257564936928  39.86239450452579  15.058743309503859  5.063236424008417  79.87709202945105  24.35783146062433  -65.17929663499497  22.350250495479806  120.000000
9.13455  0.000000  0.000000  0.000000  -33.72722104470301  2.478229814588066  -10.8201874049314  40.156744720762894  15.528474857865431  5.966793201556523  80.41422079366804  28.25500854443228  -66.77204630575312  22.42059354778208  120.000000
9.192  0.000000  0.000000  0.000000  -33.9979738953842  3.4631653767818475  -10.266067746232814  40.58117908721867  16.018772363464507  7.105847663115873  81.03143625039706  32.13037523262418  -68.74646606088803  22.408551667450894  120.000000
9.24945  0.000000  0.000000  0.000000  -34.39370120639356  4.752452552359185  -9.309662731098918  41.159793480217004  16.493917485586838  8.427723266196443  81.5756632366173  35.93093171386962  -70.90514329886813  22.310644226382173  120.000000
9.3069  0.000000  0.000000  0.000000  -34.9435038260204  6.320404219530463  -7.891089946598017  41.901282153419835  16.911610367891083  9.867950542328192  81.93748983554832  39.6125347281617  -73.07791433763838  22.115611456561048  120.000000
9.36435  0.000000  0.000000  0.000000  -35.680844027468495  8.109509508811225  -5.956049849281333  42.79470206126698  17.223992877608282  11.366068796519132  82.05841333474338  43.13237094150908  -75.13199856161694  21.812164818736747  120.000000
9.421800000000001  0.000000  0.000000  0.000000  -36.63596490282264  10.033729517849272  -3.469848125748959  43.81812180652605  17.38723748663029  12.866913686766104  81.92426330458227  46.44980562663176  -76.97680901734633  21.401872063227618  120.000000
9.47925  0.000000  0.000000  0.000000  -37.83449547339404  11.982646928242108  -0.4354991799585447  44.93794195457001  17.37041119403995  14.32096496582786  81.55007897070448  49.52641982095436  -78.56122347957796  20.906685687268784  120.000000
9.5367  0.000000  0.000000  0.000000  -39.287397130790026  13.833903611198963  3.090352574759412  46.10786727220455  17.163568542882352  15.682338449272947  80.96703519741162  52.32527960772487  -79.86484206002513  20.366099357164643  120.000000
9.59415  0.000000  0.000000  0.000000  -40.972845700240725  15.470448296223685  6.985208794194129  47.27443351652654  16.782673087508172  16.906780088583055  80.21448097221662  54.81645843536621  -80.88509074801242  19.826797890416273  120.000000
9.6516  0.000000  0.000000  0.000000  -42.81778604357819  16.79879313485956  11.061574928247131  48.379528643488946  16.26483727430066  17.956194092214837  79.33967282488648  56.97665479509524  -81.6260844242002  19.33095688848558  120.000000
9.70905  0.000000  0.000000  0.000000  -44.69650108206637  17.77169924771986  15.085278045990439  49.370298770614596  15.657773237928442  18.79847173580201  78.40088528945061  58.78955230019298  -82.094380866988  18.90849761181506  120.000000
9.7665  0.000000  0.000000  0.000000  -46.44888456025241  18.396658355855852  18.806907159673703  50.208452552269755  15.007842622955344  19.407392062818786  77.46692952679302  60.245747637678626  -82.30131866903035  18.578034874049504  120.000000
9.82395  0.000000  0.000000  0.000000  -47.91426578921792  18.72956720977712  21.996252250898035  50.87338648205244  14.353921545720503  19.761276027136972  76.61016572211837  61.341630843652716  -82.26873206755923  18.349640899535405  120.000000
9.8814  0.000000  0.000000  0.000000  -48.96074907760611  18.852255444377366  24.465173649135032  51.358923301931  13.727475915303348  19.8431899639454  75.89320002957764  62.078686462599606  -82.03083555456755  18.22580971205645  120.000000
9.93885  0.000000  0.000000  0.000000  -49.50013892529439  18.844601026703756  26.077297495857696  51.667421019048604  13.155635142149178  19.64444602013486  75.35887764884967  62.46233008422534  -81.63119962936088  18.19731773212795  120.000000
9.9963  0.000000  0.000000  0.000000  -49.48796805594942  18.759898981780918  26.746251529213847  51.80700592253775  12.663265247722489  19.171281697155234  75.02714141647502  62.502648250390955  -81.11479397991108  18.243700830293385  120.000000
10.05375  0.000000  0.000000  0.000000  -48.9209622259021  18.60932923578574  26.43063706553536  51.78707783392997  12.271580364973028  18.451694938101625  74.89698424183216  62.211492739297725  -80.51482113365877  18.337712133783953  120.000000
10.1112  0.000000  0.000000  0.000000  -47.84405952435246  18.361080435325206  25.136887129384423  51.610694912136665  11.999211856654062  17.53027627943892  74.94378892529664  61.59665131277615  -79.83540059401992  18.44896421123786  120.000000
10.16865  0.000000  0.000000  0.000000  -46.352706192189025  17.949301366672422  22.931625566921117  51.273228942267146  11.864876926853524  16.46378126824416  75.12150657774849  60.662960914936235  -79.0380338110984  18.54850575233779  120.000000
